# AST/ASF file generated using VICON BodyLanguage
# -----------------------------------------------
:version 1.10
:name VICON
:units
  mass 1.0
  length 0.45
  angle deg
:documentation
   .ast/.asf automatically generated from VICON data using
   VICON BodyBuilder and BodyLanguage model FoxedUp or BRILLIANT.MOD
:root
   order TX TY TZ RX RY RZ
   axis XYZ
   position 0 0 0  
   orientation 0 0 0 
:bonedata
  begin
     id 1 
     name lhipjoint
     direction 0.576517 -0.752066 0.319413 
     length 2.45433 
     axis 0 0 0  XYZ
  end
  begin
     id 2 
     name lfemur
     direction 0.34202 -0.939693 0  
     length 7.54459  
     axis 0 0 20  XYZ
    dof rx ry rz
    limits (-160.0 20.0)
           (-70.0 70.0)
           (-60.0 70.0)
  end
  begin
     id 3 
     name ltibia
     direction 0.34202 -0.939693 0   
     length 7.73986   
     axis 0 0 20   XYZ
    dof rx
    limits (-10.0 170.0)
  end
  begin
     id 4 
     name lfoot
     direction 0.090693 -0.249177 0.964202   
     length 2.28437   
     axis -90 7.62852e-016 20   XYZ
    dof rx rz
    limits (-45.0 90.0)
           (-70.0 20.0)
  end
  begin
     id 5 
     name ltoes
     direction 1.5356e-011 -4.21928e-011 1   
     length 1.14243   
     axis -90 7.62852e-016 20   XYZ
    dof rx
    limits (-90.0 20.0)
  end
  begin
     id 6 
     name rhipjoint
     direction -0.573937 -0.753736 0.320122   
     length 2.44889  
     axis 0 0 0  XYZ 
  end
  begin
     id 7 
     name rfemur
     direction -0.34202 -0.939693 0   
     length 7.50166   
     axis 0 0 -20   XYZ
    dof rx ry rz
    limits (-160.0 20.0)
           (-70.0 70.0)
           (-70.0 60.0)
  end
  begin
     id 8 
     name rtibia
     direction -0.34202 -0.939693 0   
     length 7.54266   
     axis 0 0 -20   XYZ
    dof rx
    limits (-10.0 170.0)
 end
 begin
     id 9 
     name rfoot
     direction -0.114017 -0.31326 0.942798   
     length 2.34212  
     axis -90 -7.62852e-016 -20   XYZ
    dof rx rz
    limits (-45.0 90.0)
           (-20.0 70.0)
  end
  begin
     id 10 
     name rtoes
     direction -1.53557e-011 -4.21867e-011 1   
     length 1.16246   
     axis -90 -7.62852e-016 -20   XYZ
    dof rx
    limits (-90.0 20.0)
  end
  begin
     id 11 
     name lowerback
     direction -0.0228371 0.999155 -0.034167   
     length 2.0537   
     axis 0 0 0   XYZ
    dof rx ry rz
    limits (-20.0 45.0)
           (-30.0 30.0)
           (-30.0 30.0)
  end
  begin
     id 12 
     name upperback
     direction 0.0198981 0.999794 0.00389455   
     length 2.05302   
     axis 0 0 0   XYZ
    dof rx ry rz
    limits (-20.0 45.0)
           (-30.0 30.0)
           (-30.0 30.0)
  end
  begin
     id 13 
     name thorax
     direction 0.0304566 0.99935 0.0192987   
     length 2.05315   
     axis 0 0 0   XYZ
    dof rx ry rz
    limits (-20.0 45.0)
           (-30.0 30.0)
           (-30.0 30.0)
  end
  begin
     id 14 
     name lowerneck
     direction -0.0196762 0.99417 0.106017   
     length 1.82056   
     axis 0 0 0   XYZ
    dof rx ry rz
    limits (-20.0 45.0)
           (-30.0 30.0)
           (-30.0 30.0)
  end
  begin
     id 15 
     name upperneck
     direction 0.00517787 0.9802 -0.197944   
     length 1.83835   
     axis 0 0 0   XYZ
    dof rx ry rz
    limits (-20.0 45.0)
           (-30.0 30.0)
           (-30.0 30.0)
  end
  begin
     id 16
     name head
     direction 0.00211419 0.996945 -0.078081  
     length 1.85629  
     axis 0 0 0   XYZ
    dof rx ry rz
    limits (-20.0 45.0)
           (-30.0 30.0)
           (-30.0 30.0)
  end
  begin
     id 17 
     name lclavicle
     direction 0.930001 0.365811 -0.0357824  
     length 3.81961  
     axis 0 0 0   XYZ
    dof ry rz
    limits (-20.0 10.0)
           (0.0 20.0)
  end
  begin
     id 18 
     name lhumerus
     direction 1 -4.48968e-011 -3.06644e-027   
     length 5.14507   
     axis 180 -30 -90   XYZ
    dof rx ry rz
    limits (-60.0 90.0)
           (-90.0 90.0)
           (-90.0 90.0)
  end
  begin
     id 19
     name lradius
     direction 1 -4.48965e-011 9.06925e-028   
     length 3.50646   
     axis 180 -30 -90   XYZ
    dof rx
    limits (-10.0 170.0)
  end
  begin
     id 20
     name lwrist
     direction 1 -4.48957e-011 1.03922e-027   
     length 1.75323   
     axis -2.56395e-016 90 90   XYZ
    dof ry
    limits (-180.0 0.0)
 end
  begin
     id 21 
     name lhand
     direction 1 -4.48967e-011 2.08017e-027   
     length 0.629969   
     axis -1.32723e-015 90 90   XYZ
    dof rx rz
    limits (-90.0 90.0)
           (-45.0 45.0)
  end
  begin
     id 22 
     name lfingers
     direction 1 -4.49089e-011 4.20095e-027   
     length 0.507897   
     axis -2.6545e-015 90 90   XYZ
    dof rx
    limits (0.0 90.0)
  end
  begin
     id 23
     name lthumb
     direction 0.707107 -6.35001e-011 0.707107   
     length 0.729241   
     axis -90 45 5.05613e-014   XYZ
    dof rx rz
    limits (-45.0 45.0)
           (-45.0 45.0)
  end
  begin
     id 24 
     name rclavicle
     direction -0.881882 0.464123 -0.0829113   
     length 3.47515  
     axis 0 0 0   XYZ 
    dof ry rz
    limits (-10.0 20.0)
           (-20.0 0.0)
  end
  begin
     id 25 
     name rhumerus
     direction -1 -4.48961e-011 -1.55672e-027  
     length 5.232   
     axis 180 30 90   XYZ
    dof rx ry rz
    limits (-90.0 60.0)
           (-90.0 90.0)
           (-90.0 90.0)
  end
  begin
     id 26 
     name rradius
     direction -1 -4.48963e-011 6.18178e-029   
     length 3.65641   
     axis 180 30 90   XYZ
    dof rx
    limits (-10.0 170.0)
  end
  begin
     id 27 
     name rwrist
     direction -1 -4.48982e-011 1.04136e-027   
     length 1.8282   
     axis -2.56395e-016 -90 -90   XYZ
    dof ry
    limits (-180.0 0.0)
  end
  begin
     id 28
     name rhand
     direction -1 -4.48929e-011 2.07378e-027   
     length 0.656807   
     axis -1.32723e-015 -90 -90   XYZ
    dof rx rz
    limits (-90.0 90.0)
           (-45.0 45.0)
  end
  begin
     id 29
     name rfingers
     direction -1 -4.489e-011 4.13816e-027   
     length 0.529535   
     axis -2.6545e-015 -90 -90   XYZ
    dof rx
    limits (0.0 90.0)
  end
  begin
     id 30
     name rthumb
     direction -0.707107 -6.34843e-011 0.707107   
     length 0.760309   
     axis -90 -45 -5.05613e-014   XYZ
    dof rx rz
    limits (-45.0 45.0)
           (-45.0 45.0)
  end
:hierarchy
  begin
    root lhipjoint rhipjoint lowerback
    lhipjoint lfemur
    lfemur ltibia
    ltibia lfoot
    lfoot ltoes
    rhipjoint rfemur
    rfemur rtibia
    rtibia rfoot
    rfoot rtoes
    lowerback upperback
    upperback thorax
    thorax lowerneck lclavicle rclavicle
    lowerneck upperneck
    upperneck head
    lclavicle lhumerus
    lhumerus lradius
    lradius lwrist
    lwrist lhand lthumb
    lhand lfingers
    rclavicle rhumerus
    rhumerus rradius
    rradius rwrist
    rwrist rhand rthumb
    rhand rfingers
  end

#!OML:ASF H:\ManfredETheater\Project 1\Capture day 1\Session 1\subject.ASF
:FULLY-SPECIFIED
:DEGREES
1
root 0.440074 16.6849 -43.6804 27.2584 -0.118259 -5.17762
lowerback 16.6484 2.1826 5.38769
upperback 0.715599 4.0595 1.97589
thorax -8.34564 1.77445 -1.86389
lowerneck -15.4763 -3.15588 -2.28284
upperneck -4.55531 -3.82522 0.685245
head 1.21202 -1.87445 0.389222
rclavicle 3.97569e-015 -1.43125e-014
rhumerus -28.8383 21.6042 -87.2553
rradius 119.214
rwrist -8.40958
rhand -20.4492 11.4892
rfingers 7.12502
rthumb 5.90619 -18.4085
lclavicle 3.97569e-015 -1.43125e-014
lhumerus -83.8196 -3.96421 92.9063
lradius 108.087
lwrist 17.5301
lhand -27.3413 -13.5982
lfingers 7.12502
lthumb -0.749747 16.3802
rfemur 5.20085 3.9144 25.724
rtibia 33.3397
rfoot 29.7511 -8.11149
rtoes -21.5007
lfemur -78.4837 4.75977 -19.3778
ltibia 63.8941
lfoot -11.9717 -14.5172
ltoes -20.7309
2
root 0.401233 16.6637 -43.1873 26.9041 0.102924 -5.12204
lowerback 16.6637 2.19043 4.94954
upperback 0.902472 3.98447 2.04833
thorax -8.18982 1.76419 -1.52037
lowerneck -15.3238 -3.24703 -2.42486
upperneck -4.84023 -3.92939 0.933729
head 1.1025 -1.91784 0.490219
rclavicle -1.07344e-014 -4.77083e-015
rhumerus -30.4722 19.8955 -88.353
rradius 116.194
rwrist -8.33267
rhand -21.0626 11.0993
rfingers 7.12502
rthumb 5.31388 -18.8141
lclavicle -1.07344e-014 -4.77083e-015
lhumerus -81.4828 -3.4934 93.2111
lradius 107.337
lwrist 18.1267
lhand -27.3987 -12.9572
lfingers 7.12502
lthumb -0.805201 17.021
rfemur 3.53212 3.10379 25.8892
rtibia 38.2804
rfoot 28.6694 -8.93793
rtoes -18.8865
lfemur -76.8576 4.56751 -19.3006
ltibia 64.1685
lfoot -11.6568 -14.8659
ltoes -21.1865
3
root 0.36068 16.6307 -42.6981 26.5719 0.449492 -4.97189
lowerback 16.8034 2.16926 4.51877
upperback 1.01381 3.8824 2.08449
thorax -8.18288 1.73345 -1.22148
lowerneck -15.4504 -3.33754 -2.53434
upperneck -4.87064 -4.02883 1.16141
head 1.12424 -1.96003 0.573624
rclavicle 2.66371e-014 -1.51076e-014
rhumerus -32.2405 17.8926 -89.3197
rradius 113.182
rwrist -8.58256
rhand -22.0149 10.468
rfingers 7.12502
rthumb 4.39443 -19.4664
lclavicle 2.66371e-014 -1.51076e-014
lhumerus -79.015 -3.24851 93.56
lradius 106.352
lwrist 18.6438
lhand -27.5605 -12.4108
lfingers 7.12502
lthumb -0.96146 17.5668
rfemur 1.71361 2.03244 25.9803
rtibia 43.1774
rfoot 27.8321 -9.26864
rtoes -16.1175
lfemur -75.1786 4.19389 -19.2149
ltibia 64.711
lfoot -11.4506 -15.4485
ltoes -15.8125
4
root 0.323446 16.5635 -42.2128 26.0824 0.65593 -4.53884
lowerback 17.067 2.16871 3.9488
upperback 1.17738 3.76787 1.93535
thorax -8.18213 1.69782 -1.04388
lowerneck -15.5771 -3.4462 -2.51941
upperneck -5.013 -4.17242 1.39703
head 1.10716 -2.02548 0.63676
rclavicle 2.90226e-014 9.14409e-015
rhumerus -33.7814 15.6138 -90.1912
rradius 109.891
rwrist -9.2853
rhand -22.8435 9.77206
rfingers 7.12502
rthumb 3.59426 -20.1774
lclavicle 2.90226e-014 9.14409e-015
lhumerus -76.3851 -3.29852 93.8196
lradius 105.156
lwrist 19.0166
lhand -27.6782 -12.1077
lfingers 7.12502
lthumb -1.07513 17.8693
rfemur 0.607705 0.826787 25.7054
rtibia 47.7527
rfoot 26.7205 -9.1815
rtoes -14.4721
lfemur -73.1903 3.74909 -19.5473
ltibia 65.3772
lfoot -12.8269 -16.0791
ltoes -8.16021
5
root 0.286778 16.5843 -41.7061 25.853 0.778919 -3.59533
lowerback 17.2461 2.10426 2.95033
upperback 1.15384 3.47599 1.62786
thorax -8.35751 1.58502 -0.752914
lowerneck -15.4375 -3.4485 -2.43797
upperneck -5.20355 -4.19218 1.57824
head 1.02393 -2.03216 0.682591
rclavicle -5.56597e-015 -6.75868e-015
rhumerus -35.083 13.2366 -90.9772
rradius 105.765
rwrist -10.8218
rhand -23.6831 9.65786
rfingers 7.12502
rthumb 2.7834 -20.3037
lclavicle -5.56597e-015 -6.75868e-015
lhumerus -73.4712 -3.47373 94.0416
lradius 103.354
lwrist 18.8006
lhand -27.6687 -12.2086
lfingers 7.12502
lthumb -1.06594 17.7684
rfemur -2.2427 -0.562864 24.7501
rtibia 52.3938
rfoot 24.5711 -7.96441
rtoes -18.1517
lfemur -70.7372 3.15804 -20.5589
ltibia 66.074
lfoot -15.7641 -14.2197
ltoes -5.94789
6
root 0.251202 16.5459 -41.2185 25.536 0.912677 -2.79701
lowerback 17.4614 2.06053 2.02961
upperback 1.20607 3.22629 1.39786
thorax -8.46372 1.49379 -0.429223
lowerneck -15.3727 -3.4757 -2.42877
upperneck -5.37774 -4.23053 1.77632
head 0.961694 -2.04684 0.743787
rclavicle -2.38542e-015 4.77083e-015
rhumerus -36.3619 10.8479 -91.5019
rradius 102.075
rwrist -11.8173
rhand -24.3551 9.27839
rfingers 7.12502
rthumb 2.1344 -20.6907
lclavicle -2.38542e-015 4.77083e-015
lhumerus -70.7172 -3.54863 94.3095
lradius 101.852
lwrist 18.8673
lhand -27.7517 -12.045
lfingers 7.12502
lthumb -1.14607 17.9317
rfemur -4.3018 -1.83005 23.9832
rtibia 56.9468
rfoot 22.676 -7.55423
rtoes -18.6547
lfemur -68.5993 2.58228 -21.3347
ltibia 66.6845
lfoot -17.641 -13.2529
ltoes -2.66332
